<svg id="Calque_1" data-name="Calque 1" xmlns="http://www.w3.org/2000/svg" viewBox="0 0 246.25 158.75"><defs><style>.cls-1{fill:#231f20;}</style></defs><title>logoParimis</title><polygon class="cls-1" points="40.1 134.48 44.04 142.47 52.86 143.75 46.48 149.97 47.98 158.75 40.1 154.61 32.21 158.75 33.72 149.97 27.34 143.75 36.16 142.47 40.1 134.48"/><polygon class="cls-1" points="72.43 134.48 76.37 142.47 85.19 143.75 78.81 149.97 80.32 158.75 72.43 154.61 64.54 158.75 66.05 149.97 59.67 143.75 68.49 142.47 72.43 134.48"/><polygon class="cls-1" points="104.76 134.48 108.7 142.47 117.52 143.75 111.14 149.97 112.65 158.75 104.76 154.61 96.88 158.75 98.38 149.97 92 143.75 100.82 142.47 104.76 134.48"/><polygon class="cls-1" points="137.09 134.48 141.03 142.47 149.85 143.75 143.47 149.97 144.98 158.75 137.09 154.61 129.21 158.75 130.71 149.97 124.33 143.75 133.15 142.47 137.09 134.48"/><polygon class="cls-1" points="168.23 134.48 172.17 142.47 180.99 143.75 174.61 149.97 176.11 158.75 168.23 154.61 160.34 158.75 161.85 149.97 155.47 143.75 164.28 142.47 168.23 134.48"/><path class="cls-1" d="M94.38,73.92l.37.43q-8.37,7.38-14.88,10A30.91,30.91,0,0,1,68.58,87a6.53,6.53,0,0,1-5-2.11,7.47,7.47,0,0,1-2-5.33q0-8.68,15.5-26.29l10.6-12q-5.64.87-9.86,1.92a33.5,33.5,0,0,0-4.46,7.38L69.76,51Q71,49.42,73.3,46.91a44.35,44.35,0,0,0,3-3.57L68.09,44.9q-12,19.22-28.43,30.57T10.79,86.82q-5.83,0-8.31-2.51A7.68,7.68,0,0,1,0,78.82a13.13,13.13,0,0,1,3-8.43,43.06,43.06,0,0,1,9-7.94A89.1,89.1,0,0,1,28.59,54q10.54-4.34,33.67-9.05Q69.2,36.22,75.06,30A147.39,147.39,0,0,1,86.32,19l11.1-9.61q-11.29,7.13-16.56,7.13a8.61,8.61,0,0,1-5.58-1.8Q73,13,73,11.22a6.88,6.88,0,0,1,.84-2.48,7.06,7.06,0,0,0,.84-2.36q0-2-4.84-3.78A31.74,31.74,0,0,0,58.79.81,40.53,40.53,0,0,0,45.11,3.13,24.23,24.23,0,0,0,35,9.36q-3.53,3.91-3.53,7.26a7.52,7.52,0,0,0,3.57,6.48,15.92,15.92,0,0,0,9.21,2.45q12.53,0,24.43-10l.56.56Q56.74,26.6,44.4,26.6a16.67,16.67,0,0,1-9.83-2.73A8.15,8.15,0,0,1,30.7,17q0-6.64,8.56-11.81A36.75,36.75,0,0,1,58.66,0a29.8,29.8,0,0,1,14,3q5.8,3,5.8,6.26a6.51,6.51,0,0,1-.84,2.36,7.24,7.24,0,0,0-.84,2.11,1.83,1.83,0,0,0,1.09,1.52,5.73,5.73,0,0,0,3,.65,19.44,19.44,0,0,0,7.77-2.11q4.6-2.11,14-8.74l3-2.17q.93-.68,2.92-1.92l.37.56L101.2,7.2A114.25,114.25,0,0,0,87.13,19.66Q79.75,27.23,68.52,44l8.74-1.6,7.63-8.89,1.61-1.68.37.31a70.07,70.07,0,0,0-8.19,10.08l9.8-1.78a164,164,0,0,1,29.8-26.88Q135.93,1,146.72,1a8.53,8.53,0,0,1,5.49,1.71,5,5,0,0,1,2.14,4q0,7.94-16.77,17.89T94.82,40Q76,61.08,69.83,70t-6.2,11.81q0,4.34,5.4,4.34Q80.43,86.2,94.38,73.92ZM61.64,45.7Q28.77,52.53,14.94,61.86T1.12,79.31a6.2,6.2,0,0,0,2.23,4.74q2.23,2,7.5,2a27.85,27.85,0,0,0,8.37-1.3,41.57,41.57,0,0,0,9.46-4.65,61.91,61.91,0,0,0,10.39-8.37q5.08-5,10.91-12ZM95.5,39.25a152.21,152.21,0,0,0,29.7-9.07q13.89-5.9,20.9-12.3t7-11.18A4.65,4.65,0,0,0,151.49,3,6.69,6.69,0,0,0,147,1.61q-8.56,0-21.15,8.7T95.5,39.25Z"/><path class="cls-1" d="M121.85,73.92l.43.43a6.87,6.87,0,0,1-4.71,2.17,4.45,4.45,0,0,1-3.35-1.43,51.16,51.16,0,0,1-9.8,8.12q-5.21,3.29-8.68,3.29a4,4,0,0,1-3-1.3,5,5,0,0,1-1.24-3.6q0-5.27,4.71-10.14A34.13,34.13,0,0,1,107,63.9q6.11-2.7,9.7-2.7t3.53,3.35q0,3.47-5.58,10a3.65,3.65,0,0,0,3,1.36A6.22,6.22,0,0,0,121.85,73.92Zm-2.23-9.55a2.38,2.38,0,0,0-.9-1.92,3.07,3.07,0,0,0-2-.74q-4.7,0-14.2,9.43T93,83.59a2,2,0,0,0,.87,1.58,3,3,0,0,0,2,.71q2.6,0,7.46-2.7a35.37,35.37,0,0,0,8.54-6.57,53.5,53.5,0,0,0,5.72-6.95A10.1,10.1,0,0,0,119.62,64.37Z"/><path class="cls-1" d="M122.29,74.35l-.43-.43,17-13.91,7.23-5.69h-5.55l.25-.62H147l10.51-11,5.3-.12-10,11.1h8.9l-.19.62H152L130.65,77.1q-3.84,4.08-4.61,5.14a3.41,3.41,0,0,0-.77,2,2,2,0,0,0,.78,1.58,2.52,2.52,0,0,0,1.64.65q5.08,0,19.47-12.53l.43.43q-14.95,12.84-20,12.84a3.52,3.52,0,0,1-2.76-1.33,4.64,4.64,0,0,1-1.15-3.13q0-4.65,6.2-11.22l12.64-13.15-.25-.19Z"/><path class="cls-1" d="M172.21,73.92l.43.43a61.41,61.41,0,0,1-13.55,9.52q-6.13,2.95-9.78,2.95-5.07,0-5.07-5.21,0-7,9.58-13.21t15-6.2a2.68,2.68,0,0,1,1.71.56,1.68,1.68,0,0,1,.71,1.36q0,3-6,6.39a35.12,35.12,0,0,1-13.36,4.15q-6.34,6.33-6.34,8.68a2.75,2.75,0,0,0,1.12,2.08,3.87,3.87,0,0,0,2.6,1q3.22,0,9.15-2.82T172.21,73.92ZM152.75,74a24.53,24.53,0,0,0,6.59-1.62,25.36,25.36,0,0,0,7.86-4.18q3.14-2.56,3.14-4.24,0-1.18-1.37-1.19a8,8,0,0,0-3.58,1,43.26,43.26,0,0,0-5.94,4.08A50.69,50.69,0,0,0,152.75,74Z"/><path class="cls-1" d="M172.64,74.35l-.43-.43q13.64-11.66,16-13.33a24.83,24.83,0,0,1,3.66-2.29,7.82,7.82,0,0,0,2.26-1.55q10.54-11.29,20.22-20.09A184.43,184.43,0,0,1,230.84,23q6.85-4.87,11.44-4.87a4.09,4.09,0,0,1,2.82,1,3,3,0,0,1,1.15,2.26q0,3.6-7.94,10.7a131,131,0,0,1-19.66,14.17q-11.72,7.07-18,8.87Q199.24,56.8,195.4,61l-5,5.46-6.26,7.44q-6.51,7.75-6.95,9.86v.56q0,2,2.29,2,5.33,0,19.29-12.4l.43.43-3.78,3.22q-11.29,9.61-16.37,9.61a3.6,3.6,0,0,1-2.7-1.21,4,4,0,0,1-1.15-2.88q0-4.59,7.13-13.27t9.18-10l-.06-.37a31.18,31.18,0,0,0-6.57,4.77Zm28.9-20.15q5-1.61,16.84-8.59a113.68,113.68,0,0,0,19.44-14q7.57-7,7.57-10.26a2.27,2.27,0,0,0-.93-1.77,3.56,3.56,0,0,0-2.36-.77q-3.72,0-9,3.57T216.82,37.33Q205.88,48.68,201.54,54.2Z"/><path class="cls-1" d="M84.69,82.81a32.64,32.64,0,0,0-5.59,4.34,51.46,51.46,0,0,0-4.8,5.12,105.7,105.7,0,0,0-6.21,9.42,61,61,0,0,1-8.63,11.37,35,35,0,0,1-10.92,7.21A33.63,33.63,0,0,1,35,123.13q-6,0-9.69-2.16t-3.64-5.22a3.31,3.31,0,0,1,.86-2.34,2.78,2.78,0,0,1,2.13-.93,2.62,2.62,0,0,1,1.79.65,2.13,2.13,0,0,1,.74,1.67,2,2,0,0,1-.6,1.51,2.09,2.09,0,0,1-1.55.6,2,2,0,0,1-1.69-.74,1.29,1.29,0,0,0-.46.88,4.57,4.57,0,0,0,1.27,2.51A8.3,8.3,0,0,0,28.46,122a24.36,24.36,0,0,0,6.66.86,25.27,25.27,0,0,0,10-2,26.55,26.55,0,0,0,8.19-5.4A90,90,0,0,0,61,106.72l3.83-4.82a133.4,133.4,0,0,1,9.62-11,75.52,75.52,0,0,1,10.11-8.4Q83.32,79.69,78.1,77a27.22,27.22,0,0,0-12.43-2.64,40.13,40.13,0,0,0-16.08,3.34,37.29,37.29,0,0,0-12.87,8.94q-5.15,5.6-5.15,10.45a7.32,7.32,0,0,0,3,5.76,10.2,10.2,0,0,0,6.71,2.46,25,25,0,0,0,9.81-2.4,35.5,35.5,0,0,0,10.09-6.67q4.57-4.26,4.57-7.92a4.28,4.28,0,0,0-1.79-3.69,7.47,7.47,0,0,0-4.5-1.3q-5.77,0-11.87,4.16A41.41,41.41,0,0,0,36.7,98.66l-.21-.14a38,38,0,0,1,9.65-10.37Q52.73,83,59.34,83a7.52,7.52,0,0,1,5.06,1.54,4.85,4.85,0,0,1,1.79,3.83q0,5.37-7.29,11.41a24.65,24.65,0,0,1-16.08,6q-5.45,0-8.53-2.62a7.73,7.73,0,0,1-3.08-6q0-5.17,5.36-10.86a39.2,39.2,0,0,1,12.81-9,38.77,38.77,0,0,1,15.89-3.3,28.69,28.69,0,0,1,12.66,2.57q5.27,2.57,6.93,5.63a74,74,0,0,1,9.07-5.73l.07.25L89.9,79.29Q88.1,80.42,85,82.53a15.38,15.38,0,0,1,1.76,7.21,10.75,10.75,0,0,1-3,8,9.61,9.61,0,0,1-6.93,3q-3.34,0-3.34-2.57T77,93.53a12.36,12.36,0,0,1,6.63-2.21l0,.25A14.94,14.94,0,0,0,76.82,94q-3,2-3,4.17,0,1.72,1.65,1.72,2.8,0,6.47-3.92a11.83,11.83,0,0,0,2.71-13.2Z"/><path class="cls-1" d="M84.74,109.21h3.11L78,119.51a4.12,4.12,0,0,0-1.46,2.4,1,1,0,0,0,.4.89,1.39,1.39,0,0,0,.83.3,6,6,0,0,0,2.71-1.24q1.86-1.24,7.17-5.75l.25.25a85.47,85.47,0,0,1-7.48,5.92,6.15,6.15,0,0,1-2.79,1.14,1.57,1.57,0,0,1-1.31-.62,2.32,2.32,0,0,1-.47-1.46,7.31,7.31,0,0,1,1.43-3.69l-.14-.11q-7.13,5.87-9.73,5.87a2,2,0,0,1-1.7-.9,4.05,4.05,0,0,1-.61-2.34q0-4,5.63-7.47t9.49-3.46q2,0,2,1.69,0,.39,0,1Zm-3,1.65q0-1.26-1.61-1.26-2.91,0-8.54,5.07T66,121.8a1.23,1.23,0,0,0,.39.86,1.43,1.43,0,0,0,1.09.4,8.39,8.39,0,0,0,3.35-1.3,37.4,37.4,0,0,0,5.74-4.21,28.59,28.59,0,0,0,4.31-4.23A4.4,4.4,0,0,0,81.74,110.86Z"/><path class="cls-1" d="M87.89,116.35l-.25-.25L93,111.71a19,19,0,0,0,1.79-1.58,2,2,0,0,1-1.13-1.83,1.88,1.88,0,0,1,.51-1.3,1.52,1.52,0,0,1,1.14-.56,1.12,1.12,0,0,1,.83.39,1.32,1.32,0,0,1,.37.95,1.36,1.36,0,0,1-.38,1,1.23,1.23,0,0,1-.93.4,1.42,1.42,0,0,1-.8-.28,1.1,1.1,0,0,0,0,.18q0,.32.49.63a2.64,2.64,0,0,0,1.43.32,7.19,7.19,0,0,0,2.93-.7l1.86,2.07a13,13,0,0,1-2.76,3.23q-2.09,1.92-4.16,4.09t-2.35,2.59a1.47,1.47,0,0,0-.28.81q0,1,1.13,1a10,10,0,0,0,4.15-1.57A45.64,45.64,0,0,0,104,116.1l.25.25q-8.19,7.07-11.64,7.07a2,2,0,0,1-1.6-.65,2.47,2.47,0,0,1-.58-1.71,4.89,4.89,0,0,1,.86-2.67A28.75,28.75,0,0,1,95,114.27a51.17,51.17,0,0,0,3.94-4.15l-.14-.25a8.22,8.22,0,0,1-2.75.53,2.82,2.82,0,0,1-.74-.11Z"/><path class="cls-1" d="M104.2,116.35l-.25-.25q1.72-1.48,8.69-6.89h3.41l-11.15,11a3.32,3.32,0,0,0-.84,1.27v.25a1.11,1.11,0,0,0,.35.81,1.19,1.19,0,0,0,.88.35,7.35,7.35,0,0,0,3.18-1.14,53.77,53.77,0,0,0,7.19-5.61l.25.25q-7.84,6.86-10.58,6.86a1.9,1.9,0,0,1-1.42-.56,2.08,2.08,0,0,1-.54-1.51,5.53,5.53,0,0,1,.9-2.83q.9-1.49,6.74-7.12l-.07-.18-3.24,2.46Zm17.23-14.06a1.64,1.64,0,0,1-.63,1.3,2,2,0,0,1-1.32.53,1.11,1.11,0,0,1-.83-.37,1.26,1.26,0,0,1-.35-.9,1.79,1.79,0,0,1,.59-1.27,1.82,1.82,0,0,1,1.32-.6,1.12,1.12,0,0,1,.87.39A1.32,1.32,0,0,1,121.43,102.29Z"/><path class="cls-1" d="M115.91,116.35l-.25-.25,3.55-2.92q5.27-4.32,7.49-4.32,1.93,0,1.93,2.18,0,2-3,5.27l.14.14q9-7.45,12.3-7.45a2.29,2.29,0,0,1,1.67.6,1.83,1.83,0,0,1,.62,1.34q0,2-3.34,5.59l.14.07a43.21,43.21,0,0,1,4.83-4,26.7,26.7,0,0,1,4.18-2.53,7.3,7.3,0,0,1,2.9-.77q2.32,0,2.32,2a5.41,5.41,0,0,1-1.3,3.4,42.33,42.33,0,0,1-5.77,5.23q-1.23,1-1.23,1.62,0,1.27,1.62,1.27a7.29,7.29,0,0,0,3.64-1.24,59.67,59.67,0,0,0,6.91-5.48l.25.25q-5.73,4.89-7.65,5.85a7.46,7.46,0,0,1-3.18,1,2.27,2.27,0,0,1-1.67-.69,2.23,2.23,0,0,1-.69-1.63,4.55,4.55,0,0,1,1-2.67,22.65,22.65,0,0,1,4.11-3.78q3.11-2.41,3.11-3.67,0-1-1.35-1a10,10,0,0,0-4.51,1.56,35.17,35.17,0,0,0-6.38,4.9l-4.15,3.9q-1.83,1.72-2.83,2.81l-3.56.07,4.82-4.78q3.87-3.85,5.17-5.42a4.58,4.58,0,0,0,1.3-2.38,1,1,0,0,0-.35-.71,1.16,1.16,0,0,0-.86-.35q-1.55,0-4.87,2.17a60.91,60.91,0,0,0-7,5.41l-6.63,6-3.53.07,1.27-1.41,4.54-4.46q3.59-3.51,4.75-4.9a4,4,0,0,0,1.16-2.16q0-.77-.91-.77a7.64,7.64,0,0,0-3.69,1.6Q120.55,112.48,115.91,116.35Z"/><path class="cls-1" d="M155.5,116.35l-.25-.25q1.72-1.48,8.69-6.89h3.41l-11.15,11a3.32,3.32,0,0,0-.84,1.27v.25a1.11,1.11,0,0,0,.35.81,1.19,1.19,0,0,0,.88.35,7.35,7.35,0,0,0,3.18-1.14A53.77,53.77,0,0,0,167,116.1l.25.25q-7.84,6.86-10.58,6.86a1.9,1.9,0,0,1-1.42-.56,2.08,2.08,0,0,1-.54-1.51,5.53,5.53,0,0,1,.9-2.83q.9-1.49,6.74-7.12l-.07-.18L159,113.47Zm17.23-14.06a1.64,1.64,0,0,1-.63,1.3,2,2,0,0,1-1.32.53,1.11,1.11,0,0,1-.83-.37,1.26,1.26,0,0,1-.35-.9,1.79,1.79,0,0,1,.59-1.27,1.82,1.82,0,0,1,1.32-.6,1.12,1.12,0,0,1,.87.39A1.32,1.32,0,0,1,172.72,102.29Z"/><path class="cls-1" d="M167.2,116.35l-.25-.25,12.9-10.79.21.35a11.21,11.21,0,0,0-1.9,1.79,2.56,2.56,0,0,0-.42,1.51,15.85,15.85,0,0,0,.25,2.27,17.81,17.81,0,0,1,.25,2.8,7.25,7.25,0,0,1-1.83,4.75l3.16-2.69.25.25q-7.91,7-12.83,7a3.2,3.2,0,0,1-2.06-.69,2.17,2.17,0,0,1-.86-1.78,2,2,0,0,1,.54-1.39,1.71,1.71,0,0,1,1.28-.58,1.11,1.11,0,0,1,.79.32,1,1,0,0,1,.33.74,1.48,1.48,0,0,1-.47,1.07,1.41,1.41,0,0,1-1,.47,2.07,2.07,0,0,1-.56-.11q0,1.58,2,1.58,2.78,0,6.28-4.05a14.74,14.74,0,0,0,3.85-8.53,13.54,13.54,0,0,1,.49-2.61Z"/></svg>