<?xml version="1.0" encoding="utf-8"?>
<!-- Generator: Adobe Illustrator 21.0.1, SVG Export Plug-In . SVG Version: 6.00 Build 0)  -->
<svg version="1.1" id="Calque_1" xmlns="http://www.w3.org/2000/svg" xmlns:xlink="http://www.w3.org/1999/xlink" x="0px" y="0px"
	 viewBox="0 0 246.2 158.8" style="enable-background:new 0 0 246.2 158.8;" xml:space="preserve">
<style type="text/css">
	.st0{fill:#A89B33;}
</style>
<polygon class="st0" points="40.1,134.5 44,142.5 52.9,143.8 46.5,150 48,158.8 40.1,154.6 32.2,158.8 33.7,150 27.3,143.8 
	36.2,142.5 "/>
<polygon class="st0" points="72.4,134.5 76.4,142.5 85.2,143.8 78.8,150 80.3,158.8 72.4,154.6 64.5,158.8 66,150 59.7,143.8 
	68.5,142.5 "/>
<polygon class="st0" points="104.8,134.5 108.7,142.5 117.5,143.8 111.1,150 112.6,158.8 104.8,154.6 96.9,158.8 98.4,150 92,143.8 
	100.8,142.5 "/>
<polygon class="st0" points="137.1,134.5 141,142.5 149.9,143.8 143.5,150 145,158.8 137.1,154.6 129.2,158.8 130.7,150 
	124.3,143.8 133.1,142.5 "/>
<polygon class="st0" points="168.2,134.5 172.2,142.5 181,143.8 174.6,150 176.1,158.8 168.2,154.6 160.3,158.8 161.8,150 
	155.5,143.8 164.3,142.5 "/>
<g>
	<path class="st0" d="M94.4,73.9l0.4,0.4c-5.6,4.9-10.5,8.3-14.9,10c-4.3,1.8-8.1,2.6-11.3,2.6c-2,0-3.6-0.7-5-2.1
		c-1.3-1.4-2-3.2-2-5.3c0-5.8,5.2-14.6,15.5-26.3l10.6-12c-3.8,0.6-7,1.2-9.9,1.9c-2.4,3.3-3.9,5.8-4.5,7.4L69.8,51
		c0.8-1.1,2-2.4,3.5-4.1c1.5-1.7,2.5-2.9,3-3.6l-8.2,1.6c-8,12.8-17.5,23-28.4,30.6c-11,7.6-20.6,11.3-28.9,11.3
		c-3.9,0-6.7-0.8-8.3-2.5C0.8,82.6,0,80.8,0,78.8c0-3.1,1-5.9,3-8.4c2-2.5,5-5.2,9-7.9c4-2.8,9.5-5.6,16.5-8.5
		c7-2.9,18.3-5.9,33.7-9.1c4.6-5.8,8.9-10.8,12.8-14.9c3.9-4.2,7.7-7.8,11.3-10.9l11.1-9.6c-7.5,4.8-13,7.1-16.6,7.1
		c-2.2,0-4.1-0.6-5.6-1.8c-1.5-1.2-2.2-2.4-2.2-3.5c0-0.5,0.3-1.3,0.8-2.5c0.6-1.2,0.8-1.9,0.8-2.4c0-1.3-1.6-2.6-4.8-3.8
		C66.7,1.4,63,0.8,58.8,0.8c-4.8,0-9.3,0.8-13.7,2.3C40.8,4.7,37.4,6.8,35,9.4s-3.5,5-3.5,7.3c0,2.7,1.2,4.8,3.6,6.5
		c2.4,1.6,5.4,2.4,9.2,2.4c8.4,0,16.5-3.3,24.4-10l0.6,0.6c-8.4,7-16.6,10.5-24.9,10.5c-4,0-7.2-0.9-9.8-2.7
		c-2.6-1.8-3.9-4.1-3.9-6.9c0-4.4,2.9-8.4,8.6-11.8C45,1.7,51.4,0,58.7,0c5.5,0,10.1,1,14,3c3.9,2,5.8,4.1,5.8,6.3
		c0,0.5-0.3,1.2-0.8,2.4c-0.6,1.1-0.8,1.8-0.8,2.1c0,0.6,0.4,1.1,1.1,1.5c0.7,0.4,1.7,0.7,3,0.7c2.1,0,4.7-0.7,7.8-2.1
		c3.1-1.4,7.7-4.3,14-8.7l3-2.2c0.6-0.5,1.6-1.1,2.9-1.9l0.4,0.6l-7.7,5.6c-4.5,3.3-9.2,7.4-14.1,12.5C82.2,24.7,76,32.8,68.5,44
		l8.7-1.6l7.6-8.9l1.6-1.7l0.4,0.3c-3,3-5.7,6.4-8.2,10.1l9.8-1.8c8.1-9.5,18-18.5,29.8-26.9C130,5.2,139.5,1,146.7,1
		c2.2,0,4.1,0.6,5.5,1.7c1.4,1.1,2.1,2.5,2.1,4c0,5.3-5.6,11.3-16.8,17.9c-11.2,6.6-25.4,11.8-42.8,15.4C82.3,54.1,74,64.1,69.8,70
		c-4.1,6-6.2,9.9-6.2,11.8c0,2.9,1.8,4.3,5.4,4.3C76.6,86.2,85.1,82.1,94.4,73.9z M61.6,45.7c-21.9,4.5-37.5,9.9-46.7,16.2
		c-9.2,6.2-13.8,12-13.8,17.5c0,1.8,0.7,3.4,2.2,4.7c1.5,1.3,4,2,7.5,2c2.8,0,5.6-0.4,8.4-1.3c2.8-0.9,5.9-2.4,9.5-4.7
		c3.5-2.2,7-5,10.4-8.4c3.4-3.3,7-7.3,10.9-12L61.6,45.7z M95.5,39.3c10.5-2.1,20.4-5.1,29.7-9.1c9.3-3.9,16.2-8,20.9-12.3
		c4.7-4.3,7-8,7-11.2c0-1.5-0.5-2.8-1.6-3.7c-1.1-0.9-2.6-1.4-4.5-1.4c-5.7,0-12.8,2.9-21.1,8.7C117.4,16.1,107.3,25.8,95.5,39.3z"
		/>
	<path class="st0" d="M121.9,73.9l0.4,0.4c-1.5,1.4-3.1,2.2-4.7,2.2c-1.3,0-2.4-0.5-3.3-1.4c-3.1,3.2-6.3,5.9-9.8,8.1
		c-3.5,2.2-6.4,3.3-8.7,3.3c-1.2,0-2.2-0.4-3-1.3c-0.8-0.9-1.2-2.1-1.2-3.6c0-3.5,1.6-6.9,4.7-10.1c3.1-3.2,6.7-5.8,10.8-7.6
		c4.1-1.8,7.3-2.7,9.7-2.7c2.4,0,3.5,1.1,3.5,3.3c0,2.3-1.9,5.6-5.6,10c0.7,0.9,1.7,1.4,3,1.4C119,75.9,120.4,75.2,121.9,73.9z
		 M119.6,64.4c0-0.8-0.3-1.4-0.9-1.9c-0.6-0.5-1.3-0.7-2-0.7c-3.1,0-7.9,3.1-14.2,9.4C96.2,77.4,93,81.6,93,83.6
		c0,0.6,0.3,1.1,0.9,1.6c0.6,0.5,1.2,0.7,2,0.7c1.7,0,4.2-0.9,7.5-2.7c3.2-1.8,6.1-4,8.5-6.6c2.5-2.6,4.4-4.9,5.7-6.9
		C118.9,67.6,119.6,65.9,119.6,64.4z"/>
	<path class="st0" d="M122.3,74.4l-0.4-0.4l17-13.9l7.2-5.7h-5.5l0.2-0.6h6.2l10.5-11l5.3-0.1l-10,11.1h8.9l-0.2,0.6H152l-21.4,22.8
		c-2.6,2.7-4.1,4.4-4.6,5.1c-0.5,0.7-0.8,1.4-0.8,2c0,0.6,0.3,1.1,0.8,1.6c0.5,0.4,1.1,0.7,1.6,0.7c3.4,0,9.9-4.2,19.5-12.5l0.4,0.4
		c-10,8.6-16.6,12.8-20,12.8c-1.1,0-2-0.4-2.8-1.3c-0.8-0.9-1.1-1.9-1.1-3.1c0-3.1,2.1-6.8,6.2-11.2l12.6-13.1l-0.2-0.2L122.3,74.4z
		"/>
	<path class="st0" d="M172.2,73.9l0.4,0.4c-5,4.4-9.5,7.6-13.6,9.5c-4.1,2-7.3,2.9-9.8,2.9c-3.4,0-5.1-1.7-5.1-5.2
		c0-4.7,3.2-9.1,9.6-13.2c6.4-4.1,11.4-6.2,15-6.2c0.7,0,1.2,0.2,1.7,0.6c0.5,0.4,0.7,0.8,0.7,1.4c0,2-2,4.2-6,6.4
		c-4,2.2-8.5,3.6-13.4,4.2c-4.2,4.2-6.3,7.1-6.3,8.7c0,0.7,0.4,1.4,1.1,2.1c0.7,0.6,1.6,1,2.6,1c2.1,0,5.2-0.9,9.1-2.8
		C162.3,81.7,166.9,78.5,172.2,73.9z M152.8,74c1.2,0,3.4-0.5,6.6-1.6c3.1-1.1,5.8-2.5,7.9-4.2c2.1-1.7,3.1-3.1,3.1-4.2
		c0-0.8-0.5-1.2-1.4-1.2c-1.1,0-2.3,0.3-3.6,1c-1.3,0.7-3.3,2-5.9,4.1C156.8,70,154.6,72,152.8,74z"/>
	<path class="st0" d="M172.6,74.4l-0.4-0.4c9.1-7.8,14.4-12.2,16-13.3c1.5-1.1,2.8-1.9,3.7-2.3c0.9-0.4,1.6-0.9,2.3-1.6
		c7-7.5,13.8-14.2,20.2-20.1c6.4-5.9,12-10.4,16.5-13.7c4.6-3.2,8.4-4.9,11.4-4.9c1.1,0,2.1,0.3,2.8,1c0.8,0.7,1.1,1.4,1.1,2.3
		c0,2.4-2.6,6-7.9,10.7c-5.3,4.7-11.8,9.5-19.7,14.2s-13.8,7.7-18,8.9c-1,1.1-2.7,3.1-5.3,5.8l-5,5.5l-6.3,7.4
		c-4.3,5.2-6.7,8.5-6.9,9.9v0.6c0,1.4,0.8,2,2.3,2c3.6,0,10-4.1,19.3-12.4l0.4,0.4l-3.8,3.2c-7.5,6.4-13,9.6-16.4,9.6
		c-1,0-1.9-0.4-2.7-1.2c-0.8-0.8-1.1-1.8-1.1-2.9c0-3.1,2.4-7.5,7.1-13.3c4.8-5.8,7.8-9.1,9.2-10l-0.1-0.4c-1.5,0.7-3.7,2.3-6.6,4.8
		L172.6,74.4z M201.5,54.2c3.3-1.1,8.9-3.9,16.8-8.6c7.9-4.7,14.4-9.3,19.4-14c5-4.7,7.6-8.1,7.6-10.3c0-0.7-0.3-1.3-0.9-1.8
		c-0.6-0.5-1.4-0.8-2.4-0.8c-2.5,0-5.5,1.2-9,3.6c-3.5,2.4-9,7.3-16.2,14.9C209.5,44.9,204.4,50.5,201.5,54.2z"/>
</g>
<g>
	<path class="st0" d="M84.7,82.8c-1.8,1.1-3.7,2.5-5.6,4.3c-1.9,1.8-3.5,3.5-4.8,5.1c-1.3,1.6-3.3,4.7-6.2,9.4
		c-2.9,4.7-5.7,8.5-8.6,11.4c-2.9,2.9-6.5,5.3-10.9,7.2c-4.4,1.9-8.9,2.9-13.6,2.9c-4,0-7.3-0.7-9.7-2.2s-3.6-3.2-3.6-5.2
		c0-0.9,0.3-1.7,0.9-2.3c0.6-0.6,1.3-0.9,2.1-0.9c0.7,0,1.3,0.2,1.8,0.7c0.5,0.4,0.7,1,0.7,1.7c0,0.6-0.2,1.1-0.6,1.5
		c-0.4,0.4-0.9,0.6-1.5,0.6c-0.7,0-1.3-0.2-1.7-0.7c-0.3,0.3-0.5,0.6-0.5,0.9c0,0.6,0.4,1.5,1.3,2.5c0.8,1,2.3,1.9,4.3,2.4
		c2,0.6,4.2,0.9,6.7,0.9c3.5,0,6.9-0.7,10-2c3.1-1.3,5.8-3.1,8.2-5.4c2.3-2.3,4.9-5.2,7.7-8.8l3.8-4.8c3.5-4.5,6.7-8.1,9.6-11
		c2.9-2.9,6.2-5.7,10.1-8.4c-0.8-1.9-3-3.7-6.5-5.4c-3.5-1.8-7.6-2.6-12.4-2.6c-5.6,0-10.9,1.1-16.1,3.3c-5.1,2.2-9.4,5.2-12.9,8.9
		c-3.4,3.7-5.2,7.2-5.2,10.4c0,2.2,1,4.1,3,5.8c2,1.6,4.2,2.5,6.7,2.5c2.9,0,6.1-0.8,9.8-2.4c3.7-1.6,7-3.8,10.1-6.7
		c3-2.8,4.6-5.5,4.6-7.9c0-1.6-0.6-2.8-1.8-3.7c-1.2-0.9-2.7-1.3-4.5-1.3c-3.8,0-7.8,1.4-11.9,4.2c-4.1,2.8-7.7,6.5-10.8,11.1
		l-0.2-0.1c2-3.5,5.3-6.9,9.7-10.4c4.4-3.4,8.8-5.1,13.2-5.1c2.2,0,3.9,0.5,5.1,1.5c1.2,1,1.8,2.3,1.8,3.8c0,3.6-2.4,7.4-7.3,11.4
		c-4.9,4-10.2,6-16.1,6c-3.6,0-6.5-0.9-8.5-2.6c-2.1-1.7-3.1-3.7-3.1-6c0-3.4,1.8-7.1,5.4-10.9c3.6-3.8,7.8-6.8,12.8-9
		c5-2.2,10.3-3.3,15.9-3.3c4.9,0,9.1,0.9,12.7,2.6c3.5,1.7,5.8,3.6,6.9,5.6c3.4-2.4,6.4-4.3,9.1-5.7l0.1,0.2l-4.1,2.5
		c-1.2,0.8-2.8,1.8-4.9,3.2c1.2,2.3,1.8,4.7,1.8,7.2c0,3.4-1,6.1-3,8c-2,2-4.3,3-6.9,3c-2.2,0-3.3-0.9-3.3-2.6
		c0-1.6,1.2-3.2,3.5-4.6c2.3-1.5,4.5-2.2,6.6-2.2l0,0.2c-2.5,0.3-4.8,1.1-6.7,2.5c-2,1.3-3,2.7-3,4.2c0,1.1,0.5,1.7,1.6,1.7
		c1.9,0,4-1.3,6.5-3.9c2.4-2.6,3.7-5.4,3.7-8.4C85.6,85.9,85.3,84.3,84.7,82.8z"/>
	<path class="st0" d="M84.7,109.2h3.1L78,119.5c-1,1-1.5,1.8-1.5,2.4c0,0.4,0.1,0.7,0.4,0.9c0.3,0.2,0.5,0.3,0.8,0.3
		c0.6,0,1.5-0.4,2.7-1.2c1.2-0.8,3.6-2.7,7.2-5.8l0.2,0.2c-3.8,3.2-6.3,5.2-7.5,5.9s-2.2,1.1-2.8,1.1c-0.6,0-1-0.2-1.3-0.6
		c-0.3-0.4-0.5-0.9-0.5-1.5c0-1,0.5-2.2,1.4-3.7l-0.1-0.1c-4.8,3.9-8,5.9-9.7,5.9c-0.7,0-1.3-0.3-1.7-0.9s-0.6-1.4-0.6-2.3
		c0-2.7,1.9-5.2,5.6-7.5c3.8-2.3,6.9-3.5,9.5-3.5c1.3,0,2,0.6,2,1.7c0,0.3,0,0.6,0,1L84.7,109.2z M81.7,110.9c0-0.8-0.5-1.3-1.6-1.3
		c-1.9,0-4.8,1.7-8.5,5.1c-3.8,3.4-5.6,5.8-5.6,7.1c0,0.3,0.1,0.6,0.4,0.9c0.3,0.3,0.6,0.4,1.1,0.4c0.7,0,1.8-0.4,3.4-1.3
		c1.6-0.9,3.5-2.3,5.7-4.2c2.3-1.9,3.7-3.3,4.3-4.2C81.4,112.5,81.7,111.6,81.7,110.9z"/>
	<path class="st0" d="M87.9,116.3l-0.2-0.2l5.3-4.4c0.8-0.7,1.4-1.2,1.8-1.6c-0.8-0.4-1.1-1.1-1.1-1.8c0-0.5,0.2-0.9,0.5-1.3
		c0.3-0.4,0.7-0.6,1.1-0.6c0.3,0,0.6,0.1,0.8,0.4c0.2,0.3,0.4,0.6,0.4,0.9c0,0.4-0.1,0.7-0.4,1c-0.3,0.3-0.6,0.4-0.9,0.4
		c-0.3,0-0.5-0.1-0.8-0.3c0,0.1,0,0.2,0,0.2c0,0.2,0.2,0.4,0.5,0.6s0.8,0.3,1.4,0.3c0.9,0,1.9-0.2,2.9-0.7l1.9,2.1
		c-0.4,0.9-1.4,1.9-2.8,3.2c-1.4,1.3-2.8,2.6-4.2,4.1c-1.4,1.4-2.2,2.3-2.4,2.6c-0.2,0.3-0.3,0.6-0.3,0.8c0,0.7,0.4,1,1.1,1
		c0.9,0,2.3-0.5,4.1-1.6c1.9-1,4.3-2.8,7.2-5.4l0.2,0.2c-5.5,4.7-9.3,7.1-11.6,7.1c-0.7,0-1.2-0.2-1.6-0.7s-0.6-1-0.6-1.7
		c0-0.9,0.3-1.8,0.9-2.7c0.6-0.9,1.8-2.3,3.7-4.1c1.9-1.9,3.2-3.2,3.9-4.1l-0.1-0.2c-1,0.4-1.9,0.5-2.7,0.5c-0.2,0-0.5,0-0.7-0.1
		L87.9,116.3z"/>
	<path class="st0" d="M104.2,116.3l-0.2-0.2c1.1-1,4-3.3,8.7-6.9h3.4l-11.2,11c-0.4,0.4-0.7,0.8-0.8,1.3v0.2c0,0.3,0.1,0.6,0.4,0.8
		c0.2,0.2,0.5,0.4,0.9,0.4c0.8,0,1.8-0.4,3.2-1.1c1.4-0.8,3.8-2.6,7.2-5.6l0.2,0.2c-5.2,4.6-8.8,6.9-10.6,6.9
		c-0.6,0-1.1-0.2-1.4-0.6c-0.4-0.4-0.5-0.9-0.5-1.5c0-0.9,0.3-1.8,0.9-2.8c0.6-1,2.8-3.4,6.7-7.1l-0.1-0.2l-3.2,2.5L104.2,116.3z
		 M121.4,102.3c0,0.5-0.2,0.9-0.6,1.3c-0.4,0.4-0.9,0.5-1.3,0.5c-0.3,0-0.6-0.1-0.8-0.4s-0.3-0.5-0.3-0.9c0-0.4,0.2-0.9,0.6-1.3
		c0.4-0.4,0.8-0.6,1.3-0.6c0.3,0,0.6,0.1,0.9,0.4C121.3,101.6,121.4,101.9,121.4,102.3z"/>
	<path class="st0" d="M115.9,116.3l-0.2-0.2l3.6-2.9c3.5-2.9,6-4.3,7.5-4.3c1.3,0,1.9,0.7,1.9,2.2c0,1.3-1,3.1-3,5.3l0.1,0.1
		c6-5,10.1-7.5,12.3-7.5c0.7,0,1.3,0.2,1.7,0.6c0.4,0.4,0.6,0.8,0.6,1.3c0,1.4-1.1,3.2-3.3,5.6l0.1,0.1c1.6-1.5,3.2-2.8,4.8-4
		c1.7-1.2,3-2,4.2-2.5c1.1-0.5,2.1-0.8,2.9-0.8c1.5,0,2.3,0.7,2.3,2c0,1.2-0.4,2.3-1.3,3.4c-0.9,1.1-2.8,2.8-5.8,5.2
		c-0.8,0.7-1.2,1.2-1.2,1.6c0,0.8,0.5,1.3,1.6,1.3c1.1,0,2.3-0.4,3.6-1.2c1.4-0.8,3.7-2.7,6.9-5.5l0.2,0.2c-3.8,3.3-6.4,5.2-7.6,5.9
		c-1.3,0.6-2.3,1-3.2,1c-0.7,0-1.2-0.2-1.7-0.7s-0.7-1-0.7-1.6c0-0.9,0.3-1.8,1-2.7s2-2.2,4.1-3.8c2.1-1.6,3.1-2.8,3.1-3.7
		c0-0.7-0.4-1-1.3-1c-1.2,0-2.7,0.5-4.5,1.6c-1.9,1-4,2.7-6.4,4.9l-4.1,3.9c-1.2,1.1-2.2,2.1-2.8,2.8l-3.6,0.1l4.8-4.8
		c2.6-2.6,4.3-4.4,5.2-5.4c0.9-1,1.3-1.8,1.3-2.4c0-0.2-0.1-0.5-0.3-0.7c-0.2-0.2-0.5-0.4-0.9-0.4c-1,0-2.7,0.7-4.9,2.2
		c-2.2,1.4-4.5,3.2-7,5.4l-6.6,6l-3.5,0.1l1.3-1.4l4.5-4.5c2.4-2.3,4-4,4.7-4.9c0.8-0.9,1.2-1.6,1.2-2.2c0-0.5-0.3-0.8-0.9-0.8
		c-0.9,0-2.1,0.5-3.7,1.6C121.3,111.9,119,113.8,115.9,116.3z"/>
	<path class="st0" d="M155.5,116.3l-0.2-0.2c1.1-1,4-3.3,8.7-6.9h3.4l-11.2,11c-0.4,0.4-0.7,0.8-0.8,1.3v0.2c0,0.3,0.1,0.6,0.4,0.8
		c0.2,0.2,0.5,0.4,0.9,0.4c0.8,0,1.8-0.4,3.2-1.1c1.4-0.8,3.8-2.6,7.2-5.6l0.2,0.2c-5.2,4.6-8.8,6.9-10.6,6.9
		c-0.6,0-1.1-0.2-1.4-0.6c-0.4-0.4-0.5-0.9-0.5-1.5c0-0.9,0.3-1.8,0.9-2.8c0.6-1,2.8-3.4,6.7-7.1l-0.1-0.2l-3.2,2.5L155.5,116.3z
		 M172.7,102.3c0,0.5-0.2,0.9-0.6,1.3c-0.4,0.4-0.9,0.5-1.3,0.5c-0.3,0-0.6-0.1-0.8-0.4s-0.3-0.5-0.3-0.9c0-0.4,0.2-0.9,0.6-1.3
		c0.4-0.4,0.8-0.6,1.3-0.6c0.3,0,0.6,0.1,0.9,0.4C172.6,101.6,172.7,101.9,172.7,102.3z"/>
	<path class="st0" d="M167.2,116.3l-0.2-0.2l12.9-10.8l0.2,0.4c-1,0.8-1.6,1.4-1.9,1.8c-0.3,0.4-0.4,0.9-0.4,1.5
		c0,0.5,0.1,1.3,0.2,2.3c0.2,1,0.2,2,0.2,2.8c0,1.7-0.6,3.3-1.8,4.8l3.2-2.7l0.2,0.2c-5.3,4.6-9.6,7-12.8,7c-0.8,0-1.5-0.2-2.1-0.7
		s-0.9-1-0.9-1.8c0-0.5,0.2-1,0.5-1.4s0.8-0.6,1.3-0.6c0.3,0,0.6,0.1,0.8,0.3c0.2,0.2,0.3,0.5,0.3,0.7c0,0.4-0.2,0.8-0.5,1.1
		s-0.7,0.5-1,0.5c-0.1,0-0.3,0-0.6-0.1c0,1.1,0.7,1.6,2,1.6c1.9,0,3.9-1.4,6.3-4.1c2.3-2.7,3.6-5.5,3.8-8.5c0.1-1,0.3-1.8,0.5-2.6
		L167.2,116.3z"/>
</g>
</svg>
